<svg id="visual" viewBox="0 0 900 600" width="900" height="600" xmlns="http://www.w3.org/2000/svg" xmlns:xlink="http://www.w3.org/1999/xlink" version="1.1"><rect x="0" y="0" width="900" height="600" fill="#001220"></rect><path d="M0 429L21.5 417.5C43 406 86 383 128.8 386.3C171.7 389.7 214.3 419.3 257.2 419.8C300 420.3 343 391.7 385.8 388.3C428.7 385 471.3 407 514.2 407.3C557 407.7 600 386.3 642.8 377.3C685.7 368.3 728.3 371.7 771.2 379.3C814 387 857 399 878.5 405L900 411L900 601L878.5 601C857 601 814 601 771.2 601C728.3 601 685.7 601 642.8 601C600 601 557 601 514.2 601C471.3 601 428.7 601 385.8 601C343 601 300 601 257.2 601C214.3 601 171.7 601 128.8 601C86 601 43 601 21.5 601L0 601Z" fill="#fa7268"></path><path d="M0 394L21.5 404.8C43 415.7 86 437.3 128.8 438.7C171.7 440 214.3 421 257.2 420.2C300 419.3 343 436.7 385.8 436.7C428.7 436.7 471.3 419.3 514.2 421.5C557 423.7 600 445.3 642.8 455.2C685.7 465 728.3 463 771.2 451C814 439 857 417 878.5 406L900 395L900 601L878.5 601C857 601 814 601 771.2 601C728.3 601 685.7 601 642.8 601C600 601 557 601 514.2 601C471.3 601 428.7 601 385.8 601C343 601 300 601 257.2 601C214.3 601 171.7 601 128.8 601C86 601 43 601 21.5 601L0 601Z" fill="#ef5f67"></path><path d="M0 462L21.5 463C43 464 86 466 128.8 468.7C171.7 471.3 214.3 474.7 257.2 470.8C300 467 343 456 385.8 450.5C428.7 445 471.3 445 514.2 452.3C557 459.7 600 474.3 642.8 480.7C685.7 487 728.3 485 771.2 477.5C814 470 857 457 878.5 450.5L900 444L900 601L878.5 601C857 601 814 601 771.2 601C728.3 601 685.7 601 642.8 601C600 601 557 601 514.2 601C471.3 601 428.7 601 385.8 601C343 601 300 601 257.2 601C214.3 601 171.7 601 128.8 601C86 601 43 601 21.5 601L0 601Z" fill="#e34c67"></path><path d="M0 501L21.5 498C43 495 86 489 128.8 487.5C171.7 486 214.3 489 257.2 495C300 501 343 510 385.8 515.7C428.7 521.3 471.3 523.7 514.2 518.5C557 513.3 600 500.7 642.8 497.5C685.7 494.3 728.3 500.7 771.2 500.2C814 499.7 857 492.3 878.5 488.7L900 485L900 601L878.5 601C857 601 814 601 771.2 601C728.3 601 685.7 601 642.8 601C600 601 557 601 514.2 601C471.3 601 428.7 601 385.8 601C343 601 300 601 257.2 601C214.3 601 171.7 601 128.8 601C86 601 43 601 21.5 601L0 601Z" fill="#d53867"></path><path d="M0 564L21.5 558.7C43 553.3 86 542.7 128.8 541.8C171.7 541 214.3 550 257.2 550.2C300 550.3 343 541.7 385.8 541.7C428.7 541.7 471.3 550.3 514.2 553.3C557 556.3 600 553.7 642.8 552C685.7 550.3 728.3 549.7 771.2 551.8C814 554 857 559 878.5 561.5L900 564L900 601L878.5 601C857 601 814 601 771.2 601C728.3 601 685.7 601 642.8 601C600 601 557 601 514.2 601C471.3 601 428.7 601 385.8 601C343 601 300 601 257.2 601C214.3 601 171.7 601 128.8 601C86 601 43 601 21.5 601L0 601Z" fill="#c62368"></path></svg>